{
    "asset" : {
        "generator" : "Khronos Blender glTF 2.0 I/O",
        "version" : "2.0"
    },
    "scene" : 0,
    "scenes" : [
        {
            "name" : "Scene",
            "nodes" : [
                0,
                1
            ]
        }
    ],
    "nodes" : [
        {
            "name" : "Sun",
            "translation" : [
                -73.926513671875,
                282.78564453125,
                0
            ]
        },
        {
            "mesh" : 0,
            "name" : "amalthea.001"
        }
    ],
    "materials" : [
        {
            "name" : "Default OBJ.001",
            "pbrMetallicRoughness" : {
                "baseColorTexture" : {
                    "index" : 0,
                    "texCoord" : 0
                },
                "metallicFactor" : 0.1147540807723999,
                "roughnessFactor" : 0.49180328845977783
            }
        }
    ],
    "meshes" : [
        {
            "name" : "amalthea.001",
            "primitives" : [
                {
                    "attributes" : {
                        "POSITION" : 0,
                        "NORMAL" : 1,
                        "TEXCOORD_0" : 2,
                        "COLOR_0" : 3
                    },
                    "indices" : 4,
                    "material" : 0
                }
            ]
        }
    ],
    "textures" : [
        {
            "source" : 0
        }
    ],
    "images" : [
        {
            "bufferView" : 5,
            "mimeType" : "image/png",
            "name" : "amalthea.jpg"
        }
    ],
    "accessors" : [
        {
            "bufferView" : 0,
            "componentType" : 5126,
            "count" : 1615,
            "max" : [
                120,
                83.10921478271484,
                69.96504974365234
            ],
            "min" : [
                -147.23085021972656,
                -74.23665618896484,
                -69.01979064941406
            ],
            "type" : "VEC3"
        },
        {
            "bufferView" : 1,
            "componentType" : 5126,
            "count" : 1615,
            "type" : "VEC3"
        },
        {
            "bufferView" : 2,
            "componentType" : 5126,
            "count" : 1615,
            "type" : "VEC2"
        },
        {
            "bufferView" : 3,
            "componentType" : 5126,
            "count" : 1615,
            "type" : "VEC4"
        },
        {
            "bufferView" : 4,
            "componentType" : 5123,
            "count" : 9372,
            "type" : "SCALAR"
        }
    ],
    "bufferViews" : [
        {
            "buffer" : 0,
            "byteLength" : 19380,
            "byteOffset" : 0
        },
        {
            "buffer" : 0,
            "byteLength" : 19380,
            "byteOffset" : 19380
        },
        {
            "buffer" : 0,
            "byteLength" : 12920,
            "byteOffset" : 38760
        },
        {
            "buffer" : 0,
            "byteLength" : 25840,
            "byteOffset" : 51680
        },
        {
            "buffer" : 0,
            "byteLength" : 18744,
            "byteOffset" : 77520
        },
        {
            "buffer" : 0,
            "byteLength" : 1704402,
            "byteOffset" : 96264
        }
    ],
    "buffers" : [
        {
            "byteLength" : 1800668,
            "uri" : "data:application/octet-stream;base64,"
        }
    ]
}
