{
    "asset" : {
        "generator" : "Khronos Blender glTF 2.0 I/O",
        "version" : "2.0"
    },
    "scene" : 0,
    "scenes" : [
        {
            "name" : "Scene",
            "nodes" : [
                0,
                1
            ]
        }
    ],
    "nodes" : [
        {
            "mesh" : 0,
            "name" : "Deimos Thomas"
        },
        {
            "name" : "Sun",
            "translation" : [
                0,
                15.311847686767578,
                0
            ]
        }
    ],
    "materials" : [
        {
            "name" : "Material",
            "pbrMetallicRoughness" : {
                "baseColorTexture" : {
                    "index" : 0,
                    "texCoord" : 0
                },
                "metallicFactor" : 0,
                "roughnessFactor" : 0.5
            }
        }
    ],
    "meshes" : [
        {
            "name" : "Deimos Thomas",
            "primitives" : [
                {
                    "attributes" : {
                        "POSITION" : 0,
                        "NORMAL" : 1,
                        "TEXCOORD_0" : 2
                    },
                    "indices" : 3,
                    "material" : 0
                }
            ]
        }
    ],
    "textures" : [
        {
            "source" : 0
        }
    ],
    "images" : [
        {
            "bufferView" : 4,
            "mimeType" : "image/png",
            "name" : "deimos.jpg"
        }
    ],
    "accessors" : [
        {
            "bufferView" : 0,
            "componentType" : 5126,
            "count" : 2562,
            "max" : [
                7.571477890014648,
                5.792358875274658,
                5.9898152351379395
            ],
            "min" : [
                -8.442709922790527,
                -5.264771938323975,
                -6.661355018615723
            ],
            "type" : "VEC3"
        },
        {
            "bufferView" : 1,
            "componentType" : 5126,
            "count" : 2562,
            "type" : "VEC3"
        },
        {
            "bufferView" : 2,
            "componentType" : 5126,
            "count" : 2562,
            "type" : "VEC2"
        },
        {
            "bufferView" : 3,
            "componentType" : 5123,
            "count" : 15120,
            "type" : "SCALAR"
        }
    ],
    "bufferViews" : [
        {
            "buffer" : 0,
            "byteLength" : 30744,
            "byteOffset" : 0
        },
        {
            "buffer" : 0,
            "byteLength" : 30744,
            "byteOffset" : 30744
        },
        {
            "buffer" : 0,
            "byteLength" : 20496,
            "byteOffset" : 61488
        },
        {
            "buffer" : 0,
            "byteLength" : 30240,
            "byteOffset" : 81984
        },
        {
            "buffer" : 0,
            "byteLength" : 1232599,
            "byteOffset" : 112224
        }
    ],
    "buffers" : [
        {
            "byteLength" : 1344824,
            "uri" : "data:application/octet-stream;base64,"
        }
    ]
}
