{
    "asset" : {
        "generator" : "Khronos Blender glTF 2.0 I/O",
        "version" : "2.0"
    },
    "scene" : 0,
    "scenes" : [
        {
            "name" : "Scene",
            "nodes" : [
                0,
                1
            ]
        }
    ],
    "nodes" : [
        {
            "name" : "Sun",
            "translation" : [
                -73.926513671875,
                282.78564453125,
                0
            ]
        },
        {
            "mesh" : 0,
            "name" : "eros"
        }
    ],
    "materials" : [
        {
            "name" : "Default OBJ",
            "pbrMetallicRoughness" : {
                "baseColorTexture" : {
                    "index" : 0,
                    "texCoord" : 0
                },
                "metallicFactor" : 0,
                "roughnessFactor" : 0.5
            }
        }
    ],
    "meshes" : [
        {
            "name" : "eros",
            "primitives" : [
                {
                    "attributes" : {
                        "POSITION" : 0,
                        "NORMAL" : 1,
                        "TEXCOORD_0" : 2
                    },
                    "indices" : 3,
                    "material" : 0
                }
            ]
        }
    ],
    "textures" : [
        {
            "source" : 0
        }
    ],
    "images" : [
        {
            "bufferView" : 4,
            "mimeType" : "image/png",
            "name" : "eros.jpg"
        }
    ],
    "accessors" : [
        {
            "bufferView" : 0,
            "componentType" : 5126,
            "count" : 2011,
            "max" : [
                15.02880859375,
                8.525394439697266,
                5.806353569030762
            ],
            "min" : [
                -17.492923736572266,
                -8.239429473876953,
                -6.005762577056885
            ],
            "type" : "VEC3"
        },
        {
            "bufferView" : 1,
            "componentType" : 5126,
            "count" : 2011,
            "type" : "VEC3"
        },
        {
            "bufferView" : 2,
            "componentType" : 5126,
            "count" : 2011,
            "type" : "VEC2"
        },
        {
            "bufferView" : 3,
            "componentType" : 5123,
            "count" : 11424,
            "type" : "SCALAR"
        }
    ],
    "bufferViews" : [
        {
            "buffer" : 0,
            "byteLength" : 24132,
            "byteOffset" : 0
        },
        {
            "buffer" : 0,
            "byteLength" : 24132,
            "byteOffset" : 24132
        },
        {
            "buffer" : 0,
            "byteLength" : 16088,
            "byteOffset" : 48264
        },
        {
            "buffer" : 0,
            "byteLength" : 22848,
            "byteOffset" : 64352
        },
        {
            "buffer" : 0,
            "byteLength" : 1629769,
            "byteOffset" : 87200
        }
    ],
    "buffers" : [
        {
            "byteLength" : 1716972,
            "uri" : "data:application/octet-stream;base64,"
        }
    ]
}
