{
    "asset" : {
        "generator" : "Khronos Blender glTF 2.0 I/O",
        "version" : "2.0"
    },
    "scene" : 0,
    "scenes" : [
        {
            "name" : "Scene",
            "nodes" : [
                0,
                1
            ]
        }
    ],
    "nodes" : [
        {
            "name" : "Sun",
            "translation" : [
                0,
                776.9710083007812,
                0
            ]
        },
        {
            "mesh" : 0,
            "name" : "galatea"
        }
    ],
    "materials" : [
        {
            "name" : "galatea",
            "pbrMetallicRoughness" : {
                "baseColorTexture" : {
                    "index" : 0,
                    "texCoord" : 0
                },
                "metallicFactor" : 0,
                "roughnessFactor" : 0.5
            }
        }
    ],
    "meshes" : [
        {
            "name" : "nereid",
            "primitives" : [
                {
                    "attributes" : {
                        "POSITION" : 0,
                        "NORMAL" : 1,
                        "TEXCOORD_0" : 2
                    },
                    "indices" : 3,
                    "material" : 0
                }
            ]
        }
    ],
    "textures" : [
        {
            "source" : 0
        }
    ],
    "images" : [
        {
            "bufferView" : 4,
            "mimeType" : "image/png",
            "name" : "galatea.jpg"
        }
    ],
    "accessors" : [
        {
            "bufferView" : 0,
            "componentType" : 5126,
            "count" : 7074,
            "max" : [
                102.4073486328125,
                71.84268188476562,
                96.58139038085938
            ],
            "min" : [
                -101.5926513671875,
                -72.1573257446289,
                -87.4186019897461
            ],
            "type" : "VEC3"
        },
        {
            "bufferView" : 1,
            "componentType" : 5126,
            "count" : 7074,
            "type" : "VEC3"
        },
        {
            "bufferView" : 2,
            "componentType" : 5126,
            "count" : 7074,
            "type" : "VEC2"
        },
        {
            "bufferView" : 3,
            "componentType" : 5123,
            "count" : 41472,
            "type" : "SCALAR"
        }
    ],
    "bufferViews" : [
        {
            "buffer" : 0,
            "byteLength" : 84888,
            "byteOffset" : 0
        },
        {
            "buffer" : 0,
            "byteLength" : 84888,
            "byteOffset" : 84888
        },
        {
            "buffer" : 0,
            "byteLength" : 56592,
            "byteOffset" : 169776
        },
        {
            "buffer" : 0,
            "byteLength" : 82944,
            "byteOffset" : 226368
        },
        {
            "buffer" : 0,
            "byteLength" : 1169260,
            "byteOffset" : 309312
        }
    ],
    "buffers" : [
        {
            "byteLength" : 1478572,
            "uri" : "data:application/octet-stream;base64,"
        }
    ]
}
