{
    "asset" : {
        "generator" : "Khronos Blender glTF 2.0 I/O",
        "version" : "2.0"
    },
    "scene" : 0,
    "scenes" : [
        {
            "name" : "Scene",
            "nodes" : [
                0,
                1
            ]
        }
    ],
    "nodes" : [
        {
            "name" : "Sun",
            "translation" : [
                -73.926513671875,
                282.78564453125,
                0
            ]
        },
        {
            "mesh" : 0,
            "name" : "gaspra"
        }
    ],
    "materials" : [
        {
            "name" : "Default OBJ",
            "pbrMetallicRoughness" : {
                "baseColorTexture" : {
                    "index" : 0,
                    "texCoord" : 0
                },
                "metallicFactor" : 0,
                "roughnessFactor" : 0.5
            }
        }
    ],
    "meshes" : [
        {
            "name" : "gaspra",
            "primitives" : [
                {
                    "attributes" : {
                        "POSITION" : 0,
                        "NORMAL" : 1,
                        "TEXCOORD_0" : 2
                    },
                    "indices" : 3,
                    "material" : 0
                }
            ]
        }
    ],
    "textures" : [
        {
            "source" : 0
        }
    ],
    "images" : [
        {
            "bufferView" : 4,
            "mimeType" : "image/png",
            "name" : "gaspra.jpg"
        }
    ],
    "accessors" : [
        {
            "bufferView" : 0,
            "componentType" : 5126,
            "count" : 685,
            "max" : [
                10.39188289642334,
                6.2546000480651855,
                5.1144185066223145
            ],
            "min" : [
                -7.54633092880249,
                -6.105074405670166,
                -4.990053653717041
            ],
            "type" : "VEC3"
        },
        {
            "bufferView" : 1,
            "componentType" : 5126,
            "count" : 685,
            "type" : "VEC3"
        },
        {
            "bufferView" : 2,
            "componentType" : 5126,
            "count" : 685,
            "type" : "VEC2"
        },
        {
            "bufferView" : 3,
            "componentType" : 5123,
            "count" : 3666,
            "type" : "SCALAR"
        }
    ],
    "bufferViews" : [
        {
            "buffer" : 0,
            "byteLength" : 8220,
            "byteOffset" : 0
        },
        {
            "buffer" : 0,
            "byteLength" : 8220,
            "byteOffset" : 8220
        },
        {
            "buffer" : 0,
            "byteLength" : 5480,
            "byteOffset" : 16440
        },
        {
            "buffer" : 0,
            "byteLength" : 7332,
            "byteOffset" : 21920
        },
        {
            "buffer" : 0,
            "byteLength" : 1736650,
            "byteOffset" : 29252
        }
    ],
    "buffers" : [
        {
            "byteLength" : 1765904,
            "uri" : "data:application/octet-stream;base64,"
        }
    ]
}
