{
    "asset" : {
        "generator" : "Khronos Blender glTF 2.0 I/O",
        "version" : "2.0"
    },
    "scene" : 0,
    "scenes" : [
        {
            "name" : "Scene",
            "nodes" : [
                0,
                1
            ]
        }
    ],
    "nodes" : [
        {
            "name" : "Sun",
            "translation" : [
                -73.926513671875,
                282.78564453125,
                0
            ]
        },
        {
            "mesh" : 0,
            "name" : "hygiea"
        }
    ],
    "materials" : [
        {
            "name" : "Default OBJ.002",
            "pbrMetallicRoughness" : {
                "baseColorTexture" : {
                    "index" : 0,
                    "texCoord" : 0
                },
                "metallicFactor" : 0,
                "roughnessFactor" : 0.5
            }
        }
    ],
    "meshes" : [
        {
            "name" : "hygiea",
            "primitives" : [
                {
                    "attributes" : {
                        "POSITION" : 0,
                        "NORMAL" : 1,
                        "TEXCOORD_0" : 2
                    },
                    "indices" : 3,
                    "material" : 0
                }
            ]
        }
    ],
    "textures" : [
        {
            "source" : 0
        }
    ],
    "images" : [
        {
            "bufferView" : 4,
            "mimeType" : "image/png",
            "name" : "hygiea.jpg"
        }
    ],
    "accessors" : [
        {
            "bufferView" : 0,
            "componentType" : 5126,
            "count" : 747,
            "max" : [
                247.07415771484375,
                244.7183074951172,
                220.50369262695312
            ],
            "min" : [
                -260.58465576171875,
                -234.68182373046875,
                -237.56170654296875
            ],
            "type" : "VEC3"
        },
        {
            "bufferView" : 1,
            "componentType" : 5126,
            "count" : 747,
            "type" : "VEC3"
        },
        {
            "bufferView" : 2,
            "componentType" : 5126,
            "count" : 747,
            "type" : "VEC2"
        },
        {
            "bufferView" : 3,
            "componentType" : 5123,
            "count" : 4098,
            "type" : "SCALAR"
        }
    ],
    "bufferViews" : [
        {
            "buffer" : 0,
            "byteLength" : 8964,
            "byteOffset" : 0
        },
        {
            "buffer" : 0,
            "byteLength" : 8964,
            "byteOffset" : 8964
        },
        {
            "buffer" : 0,
            "byteLength" : 5976,
            "byteOffset" : 17928
        },
        {
            "buffer" : 0,
            "byteLength" : 8196,
            "byteOffset" : 23904
        },
        {
            "buffer" : 0,
            "byteLength" : 1308133,
            "byteOffset" : 32100
        }
    ],
    "buffers" : [
        {
            "byteLength" : 1340236,
            "uri" : "data:application/octet-stream;base64,"
        }
    ]
}
