{
    "asset" : {
        "generator" : "Khronos Blender glTF 2.0 I/O",
        "version" : "2.0"
    },
    "scene" : 0,
    "scenes" : [
        {
            "name" : "Scene",
            "nodes" : [
                0,
                1
            ]
        }
    ],
    "nodes" : [
        {
            "name" : "Sun",
            "translation" : [
                -73.926513671875,
                282.78564453125,
                0
            ]
        },
        {
            "mesh" : 0,
            "name" : "larissa"
        }
    ],
    "materials" : [
        {
            "name" : "Default OBJ.002",
            "pbrMetallicRoughness" : {
                "baseColorTexture" : {
                    "index" : 0,
                    "texCoord" : 0
                },
                "metallicFactor" : 0,
                "roughnessFactor" : 0.5
            }
        }
    ],
    "meshes" : [
        {
            "name" : "larissa",
            "primitives" : [
                {
                    "attributes" : {
                        "POSITION" : 0,
                        "NORMAL" : 1,
                        "TEXCOORD_0" : 2
                    },
                    "indices" : 3,
                    "material" : 0
                }
            ]
        }
    ],
    "textures" : [
        {
            "source" : 0
        }
    ],
    "images" : [
        {
            "bufferView" : 4,
            "mimeType" : "image/png",
            "name" : "larissa.jpg"
        }
    ],
    "accessors" : [
        {
            "bufferView" : 0,
            "componentType" : 5126,
            "count" : 1145,
            "max" : [
                105.095947265625,
                95.99972534179688,
                89
            ],
            "min" : [
                -95.96797943115234,
                -96.5598373413086,
                -88.7554702758789
            ],
            "type" : "VEC3"
        },
        {
            "bufferView" : 1,
            "componentType" : 5126,
            "count" : 1145,
            "type" : "VEC3"
        },
        {
            "bufferView" : 2,
            "componentType" : 5126,
            "count" : 1145,
            "type" : "VEC2"
        },
        {
            "bufferView" : 3,
            "componentType" : 5123,
            "count" : 6264,
            "type" : "SCALAR"
        }
    ],
    "bufferViews" : [
        {
            "buffer" : 0,
            "byteLength" : 13740,
            "byteOffset" : 0
        },
        {
            "buffer" : 0,
            "byteLength" : 13740,
            "byteOffset" : 13740
        },
        {
            "buffer" : 0,
            "byteLength" : 9160,
            "byteOffset" : 27480
        },
        {
            "buffer" : 0,
            "byteLength" : 12528,
            "byteOffset" : 36640
        },
        {
            "buffer" : 0,
            "byteLength" : 1201905,
            "byteOffset" : 49168
        }
    ],
    "buffers" : [
        {
            "byteLength" : 1251076,
            "uri" : "data:application/octet-stream;base64,"
        }
    ]
}
