{
    "asset" : {
        "generator" : "Khronos Blender glTF 2.0 I/O",
        "version" : "2.0"
    },
    "scene" : 0,
    "scenes" : [
        {
            "name" : "Scene",
            "nodes" : [
                0,
                1
            ]
        }
    ],
    "nodes" : [
        {
            "name" : "Sun",
            "translation" : [
                -73.926513671875,
                282.78564453125,
                0
            ]
        },
        {
            "mesh" : 0,
            "name" : "pallas"
        }
    ],
    "materials" : [
        {
            "name" : "Default OBJ.002",
            "pbrMetallicRoughness" : {
                "baseColorTexture" : {
                    "index" : 0,
                    "texCoord" : 0
                },
                "metallicFactor" : 0,
                "roughnessFactor" : 0.5
            }
        }
    ],
    "meshes" : [
        {
            "name" : "pallas",
            "primitives" : [
                {
                    "attributes" : {
                        "POSITION" : 0,
                        "NORMAL" : 1,
                        "TEXCOORD_0" : 2
                    },
                    "indices" : 3,
                    "material" : 0
                }
            ]
        }
    ],
    "textures" : [
        {
            "source" : 0
        }
    ],
    "images" : [
        {
            "bufferView" : 4,
            "mimeType" : "image/png",
            "name" : "pallas.jpg"
        }
    ],
    "accessors" : [
        {
            "bufferView" : 0,
            "componentType" : 5126,
            "count" : 2266,
            "max" : [
                304.8159484863281,
                269.6174621582031,
                264.10723876953125
            ],
            "min" : [
                -279.4443054199219,
                -273.3802490234375,
                -250.1356201171875
            ],
            "type" : "VEC3"
        },
        {
            "bufferView" : 1,
            "componentType" : 5126,
            "count" : 2266,
            "type" : "VEC3"
        },
        {
            "bufferView" : 2,
            "componentType" : 5126,
            "count" : 2266,
            "type" : "VEC2"
        },
        {
            "bufferView" : 3,
            "componentType" : 5123,
            "count" : 7878,
            "type" : "SCALAR"
        }
    ],
    "bufferViews" : [
        {
            "buffer" : 0,
            "byteLength" : 27192,
            "byteOffset" : 0
        },
        {
            "buffer" : 0,
            "byteLength" : 27192,
            "byteOffset" : 27192
        },
        {
            "buffer" : 0,
            "byteLength" : 18128,
            "byteOffset" : 54384
        },
        {
            "buffer" : 0,
            "byteLength" : 15756,
            "byteOffset" : 72512
        },
        {
            "buffer" : 0,
            "byteLength" : 1050598,
            "byteOffset" : 88268
        }
    ],
    "buffers" : [
        {
            "byteLength" : 1138868,
            "uri" : "data:application/octet-stream;base64,"
        }
    ]
}
