{
    "asset" : {
        "generator" : "Khronos glTF Blender I/O v1.3.48",
        "version" : "2.0"
    },
    "scene" : 0,
    "scenes" : [
        {
            "name" : "Scene",
            "nodes" : [
                0,
                1
            ]
        }
    ],
    "nodes" : [
        {
            "mesh" : 0,
            "name" : "Phobos Gaskell 50k poly"
        },
        {
            "name" : "Area",
            "rotation" : [
                -0.14087504148483276,
                0.36322152614593506,
                -0.25425979495048523,
                0.8851984739303589
            ],
            "translation" : [
                21.70126724243164,
                29.785531997680664,
                -24.872095108032227
            ]
        }
    ],
    "materials" : [
        {
            "doubleSided" : true,
            "emissiveFactor" : [
                0,
                0,
                0
            ],
            "name" : "Material",
            "pbrMetallicRoughness" : {
                "baseColorTexture" : {
                    "index" : 0,
                    "texCoord" : 0
                },
                "metallicFactor" : 0,
                "roughnessFactor" : 0.8571428656578064
            }
        }
    ],
    "meshes" : [
        {
            "name" : "Phobos Gaskell 50k poly",
            "primitives" : [
                {
                    "attributes" : {
                        "POSITION" : 0,
                        "NORMAL" : 1,
                        "TEXCOORD_0" : 2
                    },
                    "indices" : 3,
                    "material" : 0
                }
            ]
        }
    ],
    "textures" : [
        {
            "source" : 0
        }
    ],
    "images" : [
        {
            "bufferView" : 4,
            "mimeType" : "image/jpeg",
            "name" : "phobos"
        }
    ],
    "accessors" : [
        {
            "bufferView" : 0,
            "componentType" : 5126,
            "count" : 2505,
            "max" : [
                11.88951301574707,
                10.066991806030273,
                13.179179191589355
            ],
            "min" : [
                -11.441351890563965,
                -9.562263488769531,
                -12.995477676391602
            ],
            "type" : "VEC3"
        },
        {
            "bufferView" : 1,
            "componentType" : 5126,
            "count" : 2505,
            "type" : "VEC3"
        },
        {
            "bufferView" : 2,
            "componentType" : 5126,
            "count" : 2505,
            "type" : "VEC2"
        },
        {
            "bufferView" : 3,
            "componentType" : 5123,
            "count" : 14682,
            "type" : "SCALAR"
        }
    ],
    "bufferViews" : [
        {
            "buffer" : 0,
            "byteLength" : 30060,
            "byteOffset" : 0
        },
        {
            "buffer" : 0,
            "byteLength" : 30060,
            "byteOffset" : 30060
        },
        {
            "buffer" : 0,
            "byteLength" : 20040,
            "byteOffset" : 60120
        },
        {
            "buffer" : 0,
            "byteLength" : 29364,
            "byteOffset" : 80160
        },
        {
            "buffer" : 0,
            "byteLength" : 222306,
            "byteOffset" : 109524
        }
    ],
    "buffers" : [
        {
            "byteLength" : 331832,
            "uri" : "data:application/octet-stream;base64,"
        }
    ]
}
