{
    "asset" : {
        "generator" : "Khronos Blender glTF 2.0 I/O",
        "version" : "2.0"
    },
    "scene" : 0,
    "scenes" : [
        {
            "name" : "Scene",
            "nodes" : [
                0,
                1
            ]
        }
    ],
    "nodes" : [
        {
            "name" : "Sun",
            "translation" : [
                -73.926513671875,
                282.78564453125,
                0
            ]
        },
        {
            "mesh" : 0,
            "name" : "proteus"
        }
    ],
    "materials" : [
        {
            "name" : "Default OBJ",
            "pbrMetallicRoughness" : {
                "baseColorTexture" : {
                    "index" : 0,
                    "texCoord" : 0
                },
                "metallicFactor" : 0,
                "roughnessFactor" : 0.5
            }
        }
    ],
    "meshes" : [
        {
            "name" : "proteus",
            "primitives" : [
                {
                    "attributes" : {
                        "POSITION" : 0,
                        "NORMAL" : 1,
                        "TEXCOORD_0" : 2
                    },
                    "indices" : 3,
                    "material" : 0
                }
            ]
        }
    ],
    "textures" : [
        {
            "source" : 0
        }
    ],
    "images" : [
        {
            "bufferView" : 4,
            "mimeType" : "image/png",
            "name" : "proteus.jpg"
        }
    ],
    "accessors" : [
        {
            "bufferView" : 0,
            "componentType" : 5126,
            "count" : 2634,
            "max" : [
                214.5022735595703,
                194.054443359375,
                205.53529357910156
            ],
            "min" : [
                -222.79466247558594,
                -204.35968017578125,
                -205.4916534423828
            ],
            "type" : "VEC3"
        },
        {
            "bufferView" : 1,
            "componentType" : 5126,
            "count" : 2634,
            "type" : "VEC3"
        },
        {
            "bufferView" : 2,
            "componentType" : 5126,
            "count" : 2634,
            "type" : "VEC2"
        },
        {
            "bufferView" : 3,
            "componentType" : 5123,
            "count" : 15120,
            "type" : "SCALAR"
        }
    ],
    "bufferViews" : [
        {
            "buffer" : 0,
            "byteLength" : 31608,
            "byteOffset" : 0
        },
        {
            "buffer" : 0,
            "byteLength" : 31608,
            "byteOffset" : 31608
        },
        {
            "buffer" : 0,
            "byteLength" : 21072,
            "byteOffset" : 63216
        },
        {
            "buffer" : 0,
            "byteLength" : 30240,
            "byteOffset" : 84288
        },
        {
            "buffer" : 0,
            "byteLength" : 1727968,
            "byteOffset" : 114528
        }
    ],
    "buffers" : [
        {
            "byteLength" : 1842496,
            "uri" : "data:application/octet-stream;base64,"
        }
    ]
}
