{
    "asset" : {
        "generator" : "Khronos Blender glTF 2.0 I/O",
        "version" : "2.0"
    },
    "scene" : 0,
    "scenes" : [
        {
            "name" : "Scene",
            "nodes" : [
                0,
                1
            ]
        }
    ],
    "nodes" : [
        {
            "name" : "Sun",
            "translation" : [
                -73.926513671875,
                282.78564453125,
                0
            ]
        },
        {
            "mesh" : 0,
            "name" : "vesta"
        }
    ],
    "materials" : [
        {
            "name" : "Default OBJ.001",
            "pbrMetallicRoughness" : {
                "baseColorTexture" : {
                    "index" : 0,
                    "texCoord" : 0
                },
                "metallicFactor" : 0,
                "roughnessFactor" : 0.5
            }
        }
    ],
    "meshes" : [
        {
            "name" : "vesta",
            "primitives" : [
                {
                    "attributes" : {
                        "POSITION" : 0,
                        "NORMAL" : 1,
                        "TEXCOORD_0" : 2
                    },
                    "indices" : 3,
                    "material" : 0
                }
            ]
        }
    ],
    "textures" : [
        {
            "source" : 0
        }
    ],
    "images" : [
        {
            "bufferView" : 4,
            "mimeType" : "image/png",
            "name" : "vesta.jpg"
        }
    ],
    "accessors" : [
        {
            "bufferView" : 0,
            "componentType" : 5126,
            "count" : 2560,
            "max" : [
                285.62689208984375,
                263.9988708496094,
                230.3368682861328
            ],
            "min" : [
                -279.6953430175781,
                -281.80255126953125,
                -230.03086853027344
            ],
            "type" : "VEC3"
        },
        {
            "bufferView" : 1,
            "componentType" : 5126,
            "count" : 2560,
            "type" : "VEC3"
        },
        {
            "bufferView" : 2,
            "componentType" : 5126,
            "count" : 2560,
            "type" : "VEC2"
        },
        {
            "bufferView" : 3,
            "componentType" : 5123,
            "count" : 14634,
            "type" : "SCALAR"
        }
    ],
    "bufferViews" : [
        {
            "buffer" : 0,
            "byteLength" : 30720,
            "byteOffset" : 0
        },
        {
            "buffer" : 0,
            "byteLength" : 30720,
            "byteOffset" : 30720
        },
        {
            "buffer" : 0,
            "byteLength" : 20480,
            "byteOffset" : 61440
        },
        {
            "buffer" : 0,
            "byteLength" : 29268,
            "byteOffset" : 81920
        },
        {
            "buffer" : 0,
            "byteLength" : 1262719,
            "byteOffset" : 111188
        }
    ],
    "buffers" : [
        {
            "byteLength" : 1373908,
            "uri" : "data:application/octet-stream;base64,"
        }
    ]
}
